<?xml version="1.0" encoding="utf-8"?>
<!-- Generator: Adobe Illustrator 27.5.0, SVG Export Plug-In . SVG Version: 6.00 Build 0)  -->
<svg version="1.1" id="Capa_1" xmlns="http://www.w3.org/2000/svg" xmlns:xlink="http://www.w3.org/1999/xlink" x="0px" y="0px"
	 viewBox="0 0 58.8 80" style="enable-background:new 0 0 58.8 80;" xml:space="preserve">
<style type="text/css">
	.st0{fill:#618734;}
</style>
<g>
	<path class="st0" d="M24.89,21.21c-1.12,2.41-1.75,4.84-1.53,7.44c0.27-0.91,0.49-1.82,0.81-2.7c0.59-1.62,1.47-3.1,2.43-4.52
		c0.06-0.1,0.19-0.21,0.29-0.21c0.48-0.02,0.96-0.01,1.5-0.01c-0.44,1.7-0.79,3.37-0.73,5.09c0.18-0.62,0.34-1.25,0.55-1.86
		c0.35-1,0.75-1.98,1.12-2.97c0.08-0.21,0.2-0.28,0.42-0.28c0.72,0.01,1.43,0,2.15,0.01c0.13,0,0.31,0.07,0.39,0.16
		c1.09,1.43,2.04,2.93,2.59,4.65c0.09,0.27,0.15,0.55,0.25,0.82c0.11-2.02-0.52-3.84-1.52-5.66c1.02,0.1,1.94-0.15,2.88,0.41
		c3.68,2.22,7.11,4.74,10.14,7.79c4.39,4.43,7.61,9.58,9.61,15.49c1.47,4.32,2.23,8.78,2.48,13.33c0.13,2.28,0.12,4.55-0.21,6.82
		c-0.5,3.37-1.75,6.38-4.05,8.95c-1.96,2.19-4.41,3.42-7.23,4.09c-3.2,0.76-6.43,1.23-9.7,1.53c-3.38,0.31-6.77,0.44-10.17,0.39
		c-4.89-0.07-9.76-0.43-14.55-1.53c-2.24-0.51-4.39-1.28-6.35-2.53c-2.63-1.69-4.36-4.06-5.34-7c-0.78-2.34-1.09-4.76-1.13-7.21
		c-0.08-5.44,0.62-10.78,2.26-15.98c1.88-5.95,4.96-11.18,9.27-15.7c3.32-3.48,7.12-6.33,11.29-8.71c0.1-0.06,0.21-0.12,0.32-0.12
		C23.7,21.2,24.26,21.21,24.89,21.21z M37.48,24.73c-0.06,0.07-0.11,0.14-0.17,0.22c0.39,0.34,0.8,0.65,1.16,1.03
		c2.76,2.9,5.12,6.09,6.95,9.66c3,5.86,4.24,12.06,3.62,18.62c-0.33,3.43-1.16,6.75-2.38,9.98c-0.15,0.4-0.29,0.8-0.39,1.2
		c-0.04,0.15,0.02,0.33,0.04,0.5c0.17-0.03,0.36-0.01,0.49-0.08c0.51-0.29,1-0.62,1.5-0.92c0.62-0.37,1.25-0.71,1.98-0.78
		c0.64-0.06,1.1,0.2,1.34,0.79c0.08,0.2,0.14,0.42,0.18,0.64c0.18,1.08,0.04,2.16-0.11,3.23c-0.15,1.08-0.32,2.16-0.46,3.24
		c-0.02,0.18,0.08,0.37,0.13,0.55c0.15-0.1,0.35-0.16,0.45-0.3c0.42-0.59,0.85-1.19,1.21-1.81c1.85-3.22,2.69-6.72,2.85-10.4
		c0.17-3.91-0.42-7.73-1.51-11.48c-1.7-5.85-4.38-11.21-8.07-16.06c-1.83-2.4-3.87-4.6-6.37-6.34
		C39.15,25.67,38.3,25.22,37.48,24.73z"/>
	<path class="st0" d="M22.52,8.13c1.04,1.48,1.59,3.16,2,4.89c0.14,0.6,0.25,1.21,0.38,1.87c-0.64,0-1.22,0.01-1.81-0.01
		c-0.09,0-0.21-0.16-0.24-0.27c-0.51-1.7-1.12-3.36-1.9-4.96c-1.62-3.32-3.75-6.21-6.87-8.27c-0.04-0.03-0.07-0.06-0.11-0.09
		c2.05-1.48,11.43-1.4,15.15,0.15c-2.27,1.41-4.59,2.49-7.35,2.19c0.11,0.05,0.21,0.1,0.32,0.14c1.86,0.7,3.73,0.58,5.61,0.11
		c2.11-0.53,4.07-1.45,6.03-2.35c2.64-1.21,5.42-1.64,8.31-1.48c1.17,0.07,2.28,0.4,3.43,1.06c-0.12,0.05-0.18,0.07-0.24,0.1
		c-2.93,1.85-5.03,4.44-6.66,7.46c-1.01,1.87-1.79,3.83-2.36,5.87c-0.08,0.27-0.19,0.38-0.48,0.36c-0.53-0.03-1.05-0.01-1.63-0.01
		c0.48-2.41,1.1-4.72,2.53-6.73c-0.03-0.02-0.06-0.04-0.08-0.07c-0.43,0.46-0.88,0.89-1.28,1.37c-1.22,1.5-2.03,3.21-2.54,5.06
		c-0.08,0.28-0.19,0.38-0.48,0.36c-0.49-0.03-0.99-0.02-1.48,0c-0.25,0.01-0.33-0.08-0.32-0.32c0.1-1.66,0.18-3.33,0.27-4.99
		c0-0.02-0.01-0.05-0.03-0.14c-0.07,0.16-0.12,0.27-0.17,0.38c-0.55,1.52-0.89,3.09-1.06,4.7c-0.03,0.28-0.11,0.38-0.4,0.37
		c-0.74-0.02-1.48-0.03-2.22,0c-0.37,0.02-0.52-0.09-0.61-0.47c-0.48-1.99-1.35-3.8-2.68-5.37c-0.3-0.35-0.63-0.65-0.95-0.98
		C22.57,8.09,22.55,8.11,22.52,8.13z"/>
	<path class="st0" d="M5.08,23.22c0.29,0.06,0.58,0.09,0.85,0.19c0.23,0.08,0.4,0.06,0.61-0.06c2.64-1.46,5.21-3.06,8.09-4.02
		c1.12-0.37,2.29-0.62,3.45-0.81c1.2-0.2,2.1,0.74,1.93,1.89c-0.1,0.69-0.59,1.28-1.29,1.37c-2.77,0.34-5.19,1.58-7.59,2.87
		c-0.99,0.53-1.98,1.08-2.97,1.61c-0.23,0.12-0.36,0.27-0.43,0.54c-0.36,1.41-1.73,2.24-3.21,1.98c-1.38-0.24-2.36-1.56-2.22-2.99
		C2.46,24.33,3.66,23.23,5.08,23.22z"/>
	<path class="st0" d="M4.61,12.41c0.46,0.16,0.92,0.32,1.38,0.47c0.15,0.05,0.32,0.09,0.46,0.06c4.35-0.99,8.56-0.51,12.66,1.14
		c0.93,0.38,1.33,1.29,0.98,2.18c-0.35,0.89-1.31,1.29-2.25,0.92c-1.78-0.71-3.61-1.18-5.52-1.35C10.7,15.7,9.09,15.8,7.5,16.17
		c-0.15,0.03-0.3,0.2-0.38,0.35c-0.79,1.55-2.66,2.07-4.07,1.13c-1.01-0.68-1.47-1.99-1.11-3.17c0.36-1.17,1.43-1.97,2.63-1.97
		C4.59,12.47,4.6,12.44,4.61,12.41z"/>
	<path class="st0" d="M29.39,16.36c2.35,0,4.7,0,7.05,0c0.81,0,1.38,0.47,1.54,1.26c0.18,0.86-0.21,1.73-0.91,2.02
		c-0.16,0.06-0.34,0.09-0.51,0.09c-4.77,0-9.53,0-14.3,0c-0.82,0-1.39-0.63-1.47-1.58c-0.07-0.83,0.5-1.83,1.64-1.81
		C24.74,16.4,27.07,16.36,29.39,16.36z"/>
</g>
</svg>
