<?xml version="1.0" encoding="utf-8"?>
<!-- Generator: Adobe Illustrator 27.5.0, SVG Export Plug-In . SVG Version: 6.00 Build 0)  -->
<svg version="1.1" id="Capa_2" xmlns="http://www.w3.org/2000/svg" xmlns:xlink="http://www.w3.org/1999/xlink" x="0px" y="0px"
	 viewBox="0 0 53 80" style="enable-background:new 0 0 53 80;" xml:space="preserve">
<style type="text/css">
	.st0{fill:#618734;}
	.st1{fill:#701000;}
	.st2{fill:#FFFFFF;}
</style>
<g>
	<path class="st0" d="M32.05,6.54c0.96,0.32,0.74,1.75-0.27,1.75C16.56,8.36,8.48,17.83,7.58,31.21C6.6,45.9,16.4,51.77,27.17,51.77
		s16.65-3.92,16.65-3.92c2.85-2.69,6.59-15.16-2.6-20.81c-5.67-3.49-13.25-0.32-16.08,6.86c-0.51,1.29-2.4,1.07-2.58-0.31
		c-0.76-6.04,3.8-16.05,16.66-16.05c5.34,0,10.28,3.22,13.79,8.14V0H0v19.09C6.57,7.68,20.73,2.77,32.05,6.54z"/>
	<path class="st1" d="M28.08,63.79C17.9,64.06,5.91,60.17,0,49.28v18.69C9.64,70.35,19.12,70.39,28.08,63.79z"/>
	<path class="st0" d="M47.71,64.42C30.7,78.71,11.87,79.32,0,71.65V80h53V58.72C51.56,60.72,49.82,62.64,47.71,64.42z"/>
	<path class="st2" d="M47.71,64.42c2.11-1.78,3.86-3.7,5.29-5.7V25.68c-3.51-4.92-8.45-8.14-13.79-8.14
		c-12.86,0-17.42,10.01-16.66,16.05c0.17,1.38,2.07,1.6,2.58,0.31c2.83-7.18,10.41-10.35,16.08-6.86c9.19,5.66,5.46,18.12,2.6,20.81
		c0,0-5.87,3.92-16.65,3.92S6.6,45.9,7.58,31.21c0.89-13.38,8.98-22.85,24.2-22.92c1.01,0,1.23-1.43,0.27-1.75
		C20.73,2.77,6.57,7.68,0,19.09v30.19c5.91,10.89,17.9,14.78,28.08,14.51C19.12,70.39,9.64,70.35,0,67.97v3.68
		C11.87,79.32,30.7,78.71,47.71,64.42z"/>
</g>
</svg>
